<?xml version="1.0" standalone="no"?>
<!DOCTYPE svg PUBLIC "-//W3C//DTD SVG 1.1//EN" "http://www.w3.org/Graphics/SVG/1.1/DTD/svg11.dtd" >
<svg>
<metadata>
Created by FontForge 20090914 at Thu Feb 23 16:36:34 2012
 By ffonts
(c) 2001-2004 by ck! [freakyfonts]. All rights reserved.  http://www.freakyfonts.de
</metadata>
<defs>
<font id="PixelTechnology" horiz-adv-x="1792" >
  <font-face 
    font-family="Pixel Technology"
    font-weight="400"
    font-stretch="normal"
    units-per-em="2048"
    panose-1="2 0 0 0 0 0 0 0 0 0"
    ascent="1638"
    descent="-410"
    x-height="1280"
    cap-height="1280"
    bbox="0 -256 1792 1792"
    underline-thickness="50"
    underline-position="-50"
    unicode-range="U+0020-U+2122"
  />
<missing-glyph 
 />
    <glyph glyph-name=".notdef" 
 />
    <glyph glyph-name="zero" unicode="0" 
d="M256 0v256h-256v768h256v256h1024v-256h256v-768h-256v-256h-1024zM512 256h512v768h-512v-768z" />
    <glyph glyph-name="one" unicode="1" horiz-adv-x="1280" 
d="M256 1280h512v-1280h-512v1280z" />
    <glyph glyph-name="two" unicode="2" 
d="M256 1280h1024v-256h256v-256h-256v-256h-768v-256h1024v-256h-1536v512h256v256h768v256h-768v256z" />
    <glyph glyph-name="nine" unicode="9" 
d="M1536 1024v-1024h-256v-256h-1280v512h512v-256h512v512h-768v256h-256v256h256v256h1024v-256h256zM512 768h512v256h-512v-256z" />
    <glyph glyph-name="three" unicode="3" 
d="M512 768h-512v512h1536v-1280h-256v-256h-1280v512h512v-256h512v512h-256v256h256v256h-512v-256z" />
    <glyph glyph-name="four" unicode="4" 
d="M512 768h256v512h512v-512h256v-256h-256v-768h-512v768h-512v256h-256v512h512v-512z" />
    <glyph glyph-name="five" unicode="5" 
d="M1536 512v-512h-256v-256h-1280v512h512v-256h512v512h-1024v768h1536v-256h-1024v-256h768v-256h256z" />
    <glyph glyph-name="six" unicode="6" 
d="M512 768h768v-256h256v-256h-256v-256h-1024v256h-256v768h256v256h1024v-256h-768v-256zM512 512v-256h512v256h-512z" />
    <glyph glyph-name="seven" unicode="7" 
d="M512 512h256v256h256v256h-512v-256h-512v512h1536v-512h-256v-256h-256v-768h-512v768z" />
    <glyph glyph-name="eight" unicode="8" 
d="M1536 512v-256h-256v-256h-1024v256h-256v256h256v256h-256v256h256v256h1024v-256h256v-256h-256v-256h256zM512 512v-256h512v256h-512zM512 768h512v256h-512v-256z" />
    <glyph glyph-name="B" unicode="B" 
d="M1536 512v-256h-256v-256h-1280v1280h1280v-256h256v-256h-256v-256h256zM512 256h512v256h-256v256h256v256h-512v-768z" />
    <glyph glyph-name="C" unicode="C" 
d="M256 256h-256v768h256v256h1280v-512h-512v256h-512v-768h512v256h512v-512h-1280v256z" />
    <glyph glyph-name="D" unicode="D" 
d="M0 1280h1280v-256h256v-768h-256v-256h-1280v1280zM1024 256v768h-512v-768h512z" />
    <glyph glyph-name="F" unicode="F" 
d="M0 1024h256v256h1280v-512h-512v256h-512v-256h256v-256h-256v-768h-512v1280z" />
    <glyph glyph-name="A" unicode="A" 
d="M0 0v1024h256v256h1024v-256h256v-1280h-512v768h-256v256h256v256h-512v-1024h-512z" />
    <glyph glyph-name="G" unicode="G" 
d="M768 768h768v-1024h-512v256h-768v256h-256v768h256v256h1280v-256h-1024v-768h512v256h-256v256z" />
    <glyph glyph-name="H" unicode="H" 
d="M512 768h512v512h512v-1536h-512v768h-512v-512h-512v1280h512v-512z" />
    <glyph glyph-name="K" unicode="K" 
d="M1536 768h-256v-256h256v-768h-512v768h-512v-512h-512v1280h512v-512h512v512h512v-512z" />
    <glyph glyph-name="L" unicode="L" 
d="M1024 256v256h512v-512h-1280v256h-256v1024h512v-1024h512z" />
    <glyph glyph-name="J" unicode="J" 
d="M0 -256v512h512v-256h512v1024h-512v-256h-512v512h1536v-1280h-256v-256h-1280z" />
    <glyph glyph-name="N" unicode="N" 
d="M0 1024h256v256h1024v-256h256v-1280h-512v1280h-512v-1024h-512v1024z" />
    <glyph glyph-name="O" unicode="O" 
d="M256 0v256h-256v768h256v256h1024v-256h256v-768h-256v-256h-1024zM512 256h512v768h-512v-768z" />
    <glyph glyph-name="P" unicode="P" 
d="M0 1280h1280v-256h256v-256h-256v-256h-768v-768h-512v1536zM512 768h512v256h-512v-256z" />
    <glyph glyph-name="I" unicode="I" horiz-adv-x="1280" 
d="M0 256h256v768h-256v256h1024v-256h-256v-768h256v-256h-1024v256z" />
    <glyph glyph-name="Q" unicode="Q" 
d="M256 0v256h-256v768h256v256h1024v-256h256v-512h-256v-256h256v-256h-512v256h-256v256h256v512h-512v-768h256v-256h-512z" />
    <glyph glyph-name="R" unicode="R" 
d="M1024 512h-256v256h256v256h-512v-1024h-512v1280h1280v-256h256v-256h-256v-256h256v-768h-512v768z" />
    <glyph glyph-name="T" unicode="T" 
d="M1024 1024h-512v-256h-512v512h1280v-256h256v-1280h-512v1280z" />
    <glyph glyph-name="U" unicode="U" 
d="M256 256h-256v1024h512v-1024h512v1024h512v-1280h-1280v256z" />
    <glyph glyph-name="S" unicode="S" 
d="M0 256h1024v256h-768v256h-256v256h256v256h1280v-256h-1024v-256h768v-256h256v-256h-256v-256h-1280v256z" />
    <glyph glyph-name="X" unicode="X" 
d="M1536 768h-256v-256h256v-768h-512v768h-512v-512h-512v512h256v256h-256v512h512v-512h512v512h512v-512z" />
    <glyph glyph-name="V" unicode="V" 
d="M512 512h512v768h512v-768h-256v-256h-256v-256h-512v256h-256v256h-256v768h512v-768z" />
    <glyph glyph-name="Y" unicode="Y" 
d="M512 768h512v512h512v-512h-256v-256h-256v-512h-512v512h-256v256h-256v512h512v-512z" />
    <glyph glyph-name="M" unicode="M" horiz-adv-x="2048" 
d="M512 0h-512v1024h256v256h512v-256h256v256h512v-256h256v-1280h-512v1024h-256v-256h-256v256h-256v-768z" />
    <glyph glyph-name="W" unicode="W" horiz-adv-x="2048" 
d="M1280 1280h512v-1024h-256v-256h-512v256h-256v-256h-512v256h-256v1024h512v-768h256v256h256v-256h256v768z" />
    <glyph glyph-name="Z" unicode="Z" 
d="M0 1280h1536v-256h-256v-256h-256v-256h-256v-256h768v-256h-1536v256h256v256h256v256h256v256h-768v256z" />
    <glyph glyph-name="space" unicode=" " 
 />
    <glyph glyph-name="bar" unicode="|" horiz-adv-x="1280" 
d="M256 1280h512v-1280h-512v1280z" />
    <glyph glyph-name="a" unicode="a" 
d="M0 0v1024h256v256h1024v-256h256v-1280h-512v768h-256v256h256v256h-512v-1024h-512z" />
    <glyph glyph-name="b" unicode="b" 
d="M1536 512v-256h-256v-256h-1280v1280h1280v-256h256v-256h-256v-256h256zM512 256h512v256h-256v256h256v256h-512v-768z" />
    <glyph glyph-name="c" unicode="c" 
d="M256 256h-256v768h256v256h1280v-512h-512v256h-512v-768h512v256h512v-512h-1280v256z" />
    <glyph glyph-name="d" unicode="d" 
d="M0 1280h1280v-256h256v-768h-256v-256h-1280v1280zM1024 256v768h-512v-768h512z" />
    <glyph glyph-name="e" unicode="e" 
d="M512 256h512v256h512v-512h-1280v256h-256v768h256v256h1280v-512h-512v256h-512v-256h256v-256h-256v-256z" />
    <glyph glyph-name="f" unicode="f" 
d="M0 1024h256v256h1280v-512h-512v256h-512v-256h256v-256h-256v-768h-512v1280z" />
    <glyph glyph-name="g" unicode="g" 
d="M768 768h768v-1024h-512v256h-768v256h-256v768h256v256h1280v-256h-1024v-768h512v256h-256v256z" />
    <glyph glyph-name="h" unicode="h" 
d="M512 768h512v512h512v-1536h-512v768h-512v-512h-512v1280h512v-512z" />
    <glyph glyph-name="i" unicode="i" horiz-adv-x="1280" 
d="M0 256h256v768h-256v256h1024v-256h-256v-768h256v-256h-1024v256z" />
    <glyph glyph-name="j" unicode="j" 
d="M0 -256v512h512v-256h512v1024h-512v-256h-512v512h1536v-1280h-256v-256h-1280z" />
    <glyph glyph-name="k" unicode="k" 
d="M1536 768h-256v-256h256v-768h-512v768h-512v-512h-512v1280h512v-512h512v512h512v-512z" />
    <glyph glyph-name="l" unicode="l" 
d="M1024 256v256h512v-512h-1280v256h-256v1024h512v-1024h512z" />
    <glyph glyph-name="m" unicode="m" horiz-adv-x="2048" 
d="M512 0h-512v1024h256v256h512v-256h256v256h512v-256h256v-1280h-512v1024h-256v-256h-256v256h-256v-768z" />
    <glyph glyph-name="n" unicode="n" 
d="M0 1024h256v256h1024v-256h256v-1280h-512v1280h-512v-1024h-512v1024z" />
    <glyph glyph-name="o" unicode="o" 
d="M256 0v256h-256v768h256v256h1024v-256h256v-768h-256v-256h-1024zM512 256h512v768h-512v-768z" />
    <glyph glyph-name="p" unicode="p" 
d="M0 1280h1280v-256h256v-256h-256v-256h-768v-768h-512v1536zM512 768h512v256h-512v-256z" />
    <glyph glyph-name="q" unicode="q" 
d="M256 0v256h-256v768h256v256h1024v-256h256v-512h-256v-256h256v-256h-512v256h-256v256h256v512h-512v-768h256v-256h-512z" />
    <glyph glyph-name="r" unicode="r" 
d="M1024 512h-256v256h256v256h-512v-1024h-512v1280h1280v-256h256v-256h-256v-256h256v-768h-512v768z" />
    <glyph glyph-name="s" unicode="s" 
d="M0 256h1024v256h-768v256h-256v256h256v256h1280v-256h-1024v-256h768v-256h256v-256h-256v-256h-1280v256z" />
    <glyph glyph-name="t" unicode="t" 
d="M1024 1024h-512v-256h-512v512h1280v-256h256v-1280h-512v1280z" />
    <glyph glyph-name="u" unicode="u" 
d="M256 256h-256v1024h512v-1024h512v1024h512v-1280h-1280v256z" />
    <glyph glyph-name="v" unicode="v" 
d="M512 512h512v768h512v-768h-256v-256h-256v-256h-512v256h-256v256h-256v768h512v-768z" />
    <glyph glyph-name="w" unicode="w" horiz-adv-x="2048" 
d="M1280 1280h512v-1024h-256v-256h-512v256h-256v-256h-512v256h-256v1024h512v-768h256v256h256v-256h256v768z" />
    <glyph glyph-name="x" unicode="x" 
d="M1536 768h-256v-256h256v-768h-512v768h-512v-512h-512v512h256v256h-256v512h512v-512h512v512h512v-512z" />
    <glyph glyph-name="y" unicode="y" 
d="M512 768h512v512h512v-512h-256v-256h-256v-512h-512v512h-256v256h-256v512h512v-512z" />
    <glyph glyph-name="z" unicode="z" 
d="M0 1280h1536v-256h-256v-256h-256v-256h-256v-256h768v-256h-1536v256h256v256h256v256h256v256h-768v256z" />
    <glyph glyph-name="exclam" unicode="!" horiz-adv-x="1280" 
d="M768 512h-512v768h512v-768zM256 256h512v-256h-512v256z" />
    <glyph glyph-name="question" unicode="?" 
d="M1536 1024v-256h-256v-256h-256v-256h-512v256h256v256h256v256h-512v-256h-512v512h1280v-256h256zM512 0h512v-256h-512v256z" />
    <glyph glyph-name="at" unicode="@" 
d="M1536 1024v-512h-768v256h256v256h-512v-768h1024v-256h-1280v256h-256v768h256v256h1024v-256h256z" />
    <glyph glyph-name="E" unicode="E" 
d="M512 256h512v256h512v-512h-1280v256h-256v768h256v256h1280v-512h-512v256h-512v-256h256v-256h-256v-256z" />
    <glyph glyph-name="colon" unicode=":" horiz-adv-x="1280" 
d="M768 512h-512v256h512v-256zM256 256h512v-256h-512v256z" />
    <glyph glyph-name="semicolon" unicode=";" horiz-adv-x="1280" 
d="M0 0h256v256h512v-256h-256v-256h-512v256zM768 512h-512v256h512v-256z" />
    <glyph glyph-name="less" unicode="&#x3c;" 
d="M1024 1280h512v-256h-256v-256h-256v-256h256v-256h256v-256h-512v256h-256v256h-256v256h256v256h256v256z" />
    <glyph glyph-name="greater" unicode="&#x3e;" 
d="M1024 0h-512v256h256v256h256v256h-256v256h-256v256h512v-256h256v-256h256v-256h-256v-256h-256v-256z" />
    <glyph glyph-name="equal" unicode="=" horiz-adv-x="1280" 
d="M1024 768h-1024v256h1024v-256zM0 512h1024v-256h-1024v256z" />
    <glyph glyph-name="bracketleft" unicode="[" horiz-adv-x="1280" 
d="M256 1280h768v-256h-256v-768h256v-256h-768v1280z" />
    <glyph glyph-name="bracketright" unicode="]" horiz-adv-x="1280" 
d="M0 1280h768v-1280h-768v256h256v768h-256v256z" />
    <glyph glyph-name="braceleft" unicode="{" horiz-adv-x="1280" 
d="M0 768h256v512h768v-256h-256v-768h256v-256h-768v512h-256v256z" />
    <glyph glyph-name="braceright" unicode="}" horiz-adv-x="1280" 
d="M0 1280h768v-512h256v-256h-256v-512h-768v256h256v768h-256v256z" />
    <glyph glyph-name="slash" unicode="/" 
d="M768 1024h256v256h512v-256h-256v-256h-256v-256h-256v-256h-256v-256h-512v256h256v256h256v256h256v256z" />
    <glyph glyph-name="percent" unicode="%" 
d="M768 1024h256v256h512v-256h-256v-256h-256v-256h-256v-256h-256v-256h-512v256h256v256h256v256h256v256zM1024 256h512v-256h-512v256zM0 1280h512v-256h-512v256z" />
    <glyph glyph-name="comma" unicode="," horiz-adv-x="1280" 
d="M256 0h256v256h512v-256h-256v-256h-512v256z" />
    <glyph glyph-name="period" unicode="." horiz-adv-x="1280" 
d="M256 256h512v-256h-512v256z" />
    <glyph glyph-name="parenleft" unicode="(" horiz-adv-x="1280" 
d="M512 0v256h-256v768h256v256h512v-256h-256v-768h256v-256h-512z" />
    <glyph glyph-name="parenright" unicode=")" horiz-adv-x="1280" 
d="M768 1024v-768h-256v-256h-512v256h256v768h-256v256h512v-256h256z" />
    <glyph glyph-name="hyphen" unicode="-" horiz-adv-x="1280" 
d="M1024 512h-1024v256h1024v-256z" />
    <glyph glyph-name="backslash" unicode="\" 
d="M768 768h256v-256h256v-256h256v-256h-512v256h-256v256h-256v256h-256v256h-256v256h512v-256h256v-256z" />
    <glyph glyph-name="underscore" unicode="_" 
d="M0 256h1536v-256h-1536v256z" />
    <glyph glyph-name="grave" unicode="`" horiz-adv-x="1280" 
d="M256 1280h512v-256h256v-256h-512v256h-256v256z" />
    <glyph glyph-name="asciicircum" unicode="^" 
d="M256 1024h256v256h768v-256h256v-256h-512v256h-256v-256h-512v256z" />
    <glyph glyph-name="Adieresis" unicode="&#xc4;" 
d="M0 0v1024h256v256h1024v-256h256v-1280h-512v768h-256v256h256v256h-512v-1024h-512zM1024 1792h512v-256h-512v256zM0 1792h512v-256h-512v256z" />
    <glyph glyph-name="adieresis" unicode="&#xe4;" 
d="M0 0v1024h256v256h1024v-256h256v-1280h-512v768h-256v256h256v256h-512v-1024h-512zM1024 1792h512v-256h-512v256zM0 1792h512v-256h-512v256z" />
    <glyph glyph-name="Edieresis" unicode="&#xcb;" 
d="M512 256h512v256h512v-512h-1280v256h-256v768h256v256h1280v-512h-512v256h-512v-256h256v-256h-256v-256zM1024 1792h512v-256h-512v256zM0 1792h512v-256h-512v256z" />
    <glyph glyph-name="edieresis" unicode="&#xeb;" 
d="M512 256h512v256h512v-512h-1280v256h-256v768h256v256h1280v-512h-512v256h-512v-256h256v-256h-256v-256zM1024 1792h512v-256h-512v256zM0 1792h512v-256h-512v256z" />
    <glyph glyph-name="ydieresis" unicode="&#xff;" 
d="M512 768h512v512h512v-512h-256v-256h-256v-512h-512v512h-256v256h-256v512h512v-512zM1024 1792h512v-256h-512v256zM0 1792h512v-256h-512v256z" />
    <glyph glyph-name="odieresis" unicode="&#xf6;" 
d="M256 0v256h-256v768h256v256h1024v-256h256v-768h-256v-256h-1024zM512 256h512v768h-512v-768zM1024 1792h512v-256h-512v256zM0 1792h512v-256h-512v256z" />
    <glyph glyph-name="Odieresis" unicode="&#xd6;" 
d="M256 0v256h-256v768h256v256h1024v-256h256v-768h-256v-256h-1024zM512 256h512v768h-512v-768zM1024 1792h512v-256h-512v256zM0 1792h512v-256h-512v256z" />
    <glyph glyph-name="Udieresis" unicode="&#xdc;" 
d="M256 256h-256v1024h512v-1024h512v1024h512v-1280h-1280v256zM1024 1792h512v-256h-512v256zM0 1792h512v-256h-512v256z" />
    <glyph glyph-name="udieresis" unicode="&#xfc;" 
d="M256 256h-256v1024h512v-1024h512v1024h512v-1280h-1280v256zM1024 1792h512v-256h-512v256zM0 1792h512v-256h-512v256z" />
    <glyph glyph-name="Ydieresis" unicode="&#x178;" 
d="M512 768h512v512h512v-512h-256v-256h-256v-512h-512v512h-256v256h-256v512h512v-512zM1024 1792h512v-256h-512v256zM0 1792h512v-256h-512v256z" />
    <glyph glyph-name="exclamdown" unicode="&#xa1;" horiz-adv-x="1280" 
d="M768 0h-512v768h512v-768zM256 1280h512v-256h-512v256z" />
    <glyph glyph-name="questiondown" unicode="&#xbf;" 
d="M0 0v256h256v256h256v256h512v-256h-256v-256h-256v-256h512v256h512v-512h-1280v256h-256zM1024 1024h-512v256h512v-256z" />
    <glyph glyph-name="Idieresis" unicode="&#xcf;" horiz-adv-x="1280" 
d="M0 256h256v768h-256v256h1024v-256h-256v-768h256v-256h-1024v256zM768 1792h256v-256h-256v256zM0 1792h256v-256h-256v256z" />
    <glyph glyph-name="idieresis" unicode="&#xef;" horiz-adv-x="1280" 
d="M0 256h256v768h-256v256h1024v-256h-256v-768h256v-256h-1024v256zM768 1792h256v-256h-256v256zM0 1792h256v-256h-256v256z" />
    <glyph glyph-name="brokenbar" unicode="&#xa6;" horiz-adv-x="1280" 
d="M256 512h512v-768h-512v768zM768 768h-512v768h512v-768z" />
    <glyph glyph-name="quotedbl" unicode="&#x22;" horiz-adv-x="1536" 
d="M0 1280h512v-256h-512v256zM768 1280h512v-256h-512v256z" />
    <glyph glyph-name="dollar" unicode="$" 
d="M0 256h1024v256h-768v256h-256v256h256v256h512v256h256v-256h512v-256h-1024v-256h768v-256h256v-256h-256v-256h-256v-256h-256v256h-768v256z" />
    <glyph glyph-name="quotesingle" unicode="'" horiz-adv-x="1024" 
d="M256 1280h512v-256h-512v256z" />
    <glyph glyph-name="plus" unicode="+" horiz-adv-x="1280" 
d="M0 768h256v256h512v-256h256v-256h-256v-256h-512v256h-256v256z" />
    <glyph glyph-name="divide" unicode="&#xf7;" 
d="M0 768h1536v-256h-1536v256zM512 256h512v-256h-512v256zM1024 1024h-512v256h512v-256z" />
    <glyph glyph-name="germandbls" unicode="&#xdf;" 
d="M0 -256v1536h1280v-256h256v-256h-256v-256h256v-256h-256v-256h-512v256h256v256h-256v256h256v256h-512v-1280h-512z" />
    <glyph glyph-name="numbersign" unicode="#" horiz-adv-x="2048" 
d="M1536 0h-512v256h-256v-256h-512v256h-256v256h256v256h-256v256h256v256h512v-256h256v256h512v-256h256v-256h-256v-256h256v-256h-256v-256zM768 512h256v256h-256v-256z" />
    <glyph glyph-name="multiply" unicode="&#xd7;" horiz-adv-x="2048" 
d="M1024 512h-256v-256h-256v-256h-512v256h256v256h256v256h-256v256h-256v256h512v-256h256v-256h256v256h256v256h512v-256h-256v-256h-256v-256h256v-256h256v-256h-512v256h-256v256z" />
    <glyph glyph-name="copyright" unicode="&#xa9;" horiz-adv-x="2048" 
d="M512 1024h-256v256h256v-256h768v-256h-512v-256h512v-256h256v-256h-256v256h-768v768zM1536 1024h-256v256h-768v256h768v-256h256v-256h256v-768h-256v768zM512 256v-256h768v-256h-768v256h-256v256h-256v768h256v-768h256z" />
    <glyph glyph-name="registered" unicode="&#xae;" horiz-adv-x="2048" 
d="M1536 1024h-256v256h-768v256h768v-256h256v-256h256v-768h-256v768zM512 256v-256h768v-256h-768v256h-256v256h256zM0 256v768h256v-768h-256zM512 768h256v-512h-256v512zM768 768v256h512v-256h-512zM512 1024h-256v256h256v-256zM1280 256h256v-256h-256v256z" />
    <glyph glyph-name="ccedilla" unicode="&#xe7;" 
d="M256 256h-256v768h256v256h1280v-512h-512v256h-512v-768h512v256h512v-512h-512v-256h-512v256h-256v256z" />
    <glyph glyph-name="Ccedilla" unicode="&#xc7;" 
d="M256 256h-256v768h256v256h1280v-512h-512v256h-512v-768h512v256h512v-512h-512v-256h-512v256h-256v256z" />
    <glyph glyph-name="guillemotleft" unicode="&#xab;" horiz-adv-x="2048" 
d="M512 1280h512v-256h-256v-256h-256v-256h256v-256h256v-256h-512v256h-256v256h-256v256h256v256h256v256zM1280 1280h512v-256h-256v-256h-256v-256h256v-256h256v-256h-512v256h-256v256h-256v256h256v256h256v256z" />
    <glyph glyph-name="guillemotright" unicode="&#xbb;" horiz-adv-x="2048" 
d="M1280 1024h256v-256h256v-256h-256v-256h-256v-256h-512v256h256v256h256v256h-256v256h-256v256h512v-256zM512 1024h256v-256h256v-256h-256v-256h-256v-256h-512v256h256v256h256v256h-256v256h-256v256h512v-256z" />
    <glyph glyph-name="ampersand" unicode="&#x26;" 
d="M256 256h-256v256h256v256h-256v256h256v256h1024v-512h256v-256h-256v-256h256v-256h-1280v256zM512 768h512v256h-512v-256zM512 512v-256h512v256h-512z" />
    <glyph glyph-name="asciitilde" unicode="~" horiz-adv-x="2048" 
d="M768 1024h-256v-256h-512v256h256v256h768v-256h256v256h512v-256h-256v-256h-768v256z" />
    <glyph glyph-name="asterisk" unicode="*" horiz-adv-x="2048" 
d="M0 768h256v256h-256v256h512v-256h256v256h256v-256h256v256h512v-256h-256v-256h256v-256h-256v-256h256v-256h-512v256h-256v-256h-256v256h-256v-256h-511v256h256v255h-256z" />
    <glyph glyph-name="bullet" unicode="&#x2022;" 
d="M256 1024h256v256h512v-256h256v-512h-256v-256h-512v256h-256v512z" />
    <glyph glyph-name="plusminus" unicode="&#xb1;" horiz-adv-x="1280" 
d="M0 1024h256v256h512v-256h256v-256h-256v-256h-512v256h-256v256zM0 256h1024v-256h-1024v256z" />
    <glyph glyph-name="guilsinglleft" unicode="&#x2039;" 
d="M1280 768h-256v-256h256v-256h-512v256h-256v256h256v256h512v-256z" />
    <glyph glyph-name="guilsinglright" unicode="&#x203a;" 
d="M1280 256h-512v256h256v256h-256v256h512v-256h256v-256h-256v-256z" />
    <glyph glyph-name="Eth" unicode="&#xd0;" horiz-adv-x="2048" 
d="M0 768h256v512h1280v-256h256v-768h-256v-256h-1280v512h-256v256zM1280 256v768h-512v-256h256v-256h-256v-256h512z" />
    <glyph glyph-name="section" unicode="&#xa7;" 
d="M1280 -256h-1280v256h1024v256h-768v256h-256v256h256v256h-256v256h256v256h1280v-256h-1024v-256h768v-256h256v-256h-256v-256h256v-256h-256v-256zM512 512h512v256h-512v-256z" />
    <glyph glyph-name="acute" unicode="&#xb4;" horiz-adv-x="1280" 
d="M1024 1024h-256v-256h-512v256h256v256h512v-256z" />
    <glyph glyph-name="endash" unicode="&#x2013;" horiz-adv-x="1536" 
d="M1280 512h-1280v256h1280v-256z" />
    <glyph glyph-name="emdash" unicode="&#x2014;" 
d="M1536 512h-1536v256h1536v-256z" />
    <glyph glyph-name="trademark" unicode="&#x2122;" 
d="M1016 1055v-338h-226v451h113v113h225v-113h113v113h226v-113h113v-564h-226v451h-113v-112h-113v112h-112zM226 1055h-226v226h564v-113h113v-564h-226v564h-225v-113z" />
    <glyph glyph-name="Scaron" unicode="&#x160;" 
d="M256 1792h256v-256h512v-256h512v-256h-1024v-256h768v-256h256v-256h-256v-256h-1280v256h1024v256h-768v256h-256v256h256v256h256v256h-256v256zM1024 1792h256v-256h-256v256z" />
    <glyph glyph-name="scaron" unicode="&#x161;" 
d="M256 1792h256v-256h512v-256h512v-256h-1024v-256h768v-256h256v-256h-256v-256h-1280v256h1024v256h-768v256h-256v256h256v256h256v256h-256v256zM1024 1792h256v-256h-256v256z" />
  </font>
</defs>
</svg>
